<?xml version="1.0" standalone="no"?>
<!DOCTYPE svg PUBLIC "-//W3C//DTD SVG 20010904//EN"
 "http://www.w3.org/TR/2001/REC-SVG-20010904/DTD/svg10.dtd">
<svg version="1.0" xmlns="http://www.w3.org/2000/svg"
 width="260.000000pt" height="260.000000pt" viewBox="0 0 260.000000 260.000000"
 preserveAspectRatio="xMidYMid meet">
<metadata>
Created by potrace 1.14, written by Peter Selinger 2001-2017
</metadata>
<g transform="translate(0.000000,260.000000) scale(0.100000,-0.100000)"
fill="#000000" stroke="none">
<path d="M1160 2589 c-144 -17 -319 -68 -441 -129 -107 -54 -243 -154 -334
-245 -219 -219 -342 -482 -376 -804 -23 -219 28 -487 131 -692 54 -107 154
-243 245 -334 219 -219 482 -342 804 -376 219 -23 487 28 692 131 182 92 377
264 488 430 77 115 110 179 150 293 104 295 104 579 0 874 -63 178 -165 339
-304 478 -215 215 -479 340 -790 375 -103 11 -158 11 -265 -1z m-265 -704
c167 -43 293 -168 320 -317 l7 -38 -74 0 -74 0 -23 55 c-29 69 -101 137 -174
162 -35 12 -79 18 -137 17 -117 -1 -186 -28 -260 -103 -90 -90 -130 -200 -130
-356 0 -217 94 -386 248 -446 87 -34 227 -33 303 3 120 55 188 151 197 278 l5
70 -172 0 -171 0 0 65 0 65 240 0 240 0 0 -305 0 -305 -50 0 c-54 0 -53 -2
-75 107 l-6 32 -54 -44 c-113 -92 -202 -125 -335 -125 -145 0 -255 45 -355
145 -113 113 -165 254 -165 450 0 304 152 532 393 591 74 18 231 17 302 -1z
m715 -289 l0 -284 282 284 282 284 95 0 96 0 -232 -232 -232 -233 171 -245
c94 -135 199 -287 235 -337 l64 -93 -90 0 -90 0 -198 289 -198 290 -92 -92
-93 -92 0 -197 0 -198 -75 0 -75 0 0 570 0 570 75 0 75 0 0 -284z"/>
</g>
</svg>
